<?xml version="1.0" encoding="UTF-8"?>
<svg version="1.1" xmlns="http://www.w3.org/2000/svg" width="1254" height="1254">
<path d="M0 0 C413.82 0 827.64 0 1254 0 C1254 413.82 1254 827.64 1254 1254 C840.18 1254 426.36 1254 0 1254 C0 840.18 0 426.36 0 0 Z " fill="#FDFDFD" transform="translate(0,0)"/>
<path d="M0 0 C1.50778354 -0.00445668 1.50778354 -0.00445668 3.04602736 -0.0090034 C6.39997141 -0.01764596 9.75387958 -0.01919482 13.10783386 -0.02069092 C15.5179095 -0.02532191 17.92798441 -0.03034695 20.33805847 -0.03573608 C26.8727009 -0.04882728 33.4073359 -0.05533454 39.94198823 -0.05974674 C44.02259274 -0.06251489 48.10319491 -0.06675298 52.18379784 -0.07125092 C63.48610313 -0.08343114 74.78840656 -0.09373661 86.09071827 -0.09712601 C87.17376193 -0.09745536 87.17376193 -0.09745536 88.27868525 -0.09779136 C89.00239633 -0.09800964 89.72610741 -0.09822791 90.47174913 -0.09845281 C91.9381719 -0.09889627 93.40459468 -0.09934283 94.87101746 -0.09979248 C95.59840713 -0.10001391 96.32579681 -0.10023534 97.07522859 -0.10046348 C108.88383227 -0.10441877 120.69237452 -0.12190054 132.50095443 -0.145152 C144.62964773 -0.16884112 156.75831014 -0.18132655 168.88702697 -0.18249393 C175.69516365 -0.18341145 182.50322002 -0.18918424 189.31133461 -0.20731354 C195.70614596 -0.22428316 202.10084523 -0.22598571 208.49567413 -0.21717453 C210.84714605 -0.21640043 213.19862597 -0.22079552 215.55007744 -0.23063278 C218.74987898 -0.24323871 221.94912907 -0.23753779 225.14892578 -0.22705078 C226.08801263 -0.23510719 227.02709948 -0.24316359 227.99464351 -0.25146413 C229.27635072 -0.24157936 229.27635072 -0.24157936 230.583951 -0.2314949 C231.3227271 -0.23209199 232.06150321 -0.23268908 232.82266647 -0.23330426 C235.34358289 0.25377874 236.22757314 1.10558194 237.75700378 3.14044189 C240.15254865 23.90183069 227.830759 48.08304093 215.46305847 63.78302002 C197.38295094 86.33590676 170.95323127 103.63330098 141.89892578 107.67745972 C135.54281913 108.35370538 129.18424023 108.29298096 122.79875183 108.29815674 C121.40804385 108.30283446 120.01733737 108.30797958 118.62663269 108.31355286 C115.64748977 108.32476713 112.66835645 108.33323309 109.68919945 108.33967209 C104.9678522 108.35042899 100.24657464 108.37069316 95.52526855 108.39279175 C82.10490617 108.45446083 68.68454942 108.50868048 55.26408386 108.54180908 C47.83990238 108.56021516 40.41583948 108.58922096 32.99174529 108.62981379 C29.072365 108.65077442 25.15313335 108.6663255 21.23369408 108.66862106 C17.54401511 108.67078499 13.85464619 108.68682965 10.16506195 108.71301079 C8.18508123 108.72350526 6.2050397 108.71947907 4.22503662 108.71482849 C-14.13005001 108.88356177 -28.36194731 115.29568336 -41.86799622 127.51544189 C-55.29237221 142.35291009 -61.39314366 158.05042765 -60.42219543 178.08770752 C-58.893988 195.59338614 -50.12077573 210.6441526 -36.86799622 221.95294189 C-22.79303029 232.88944073 -7.07605509 235.77332061 10.42106628 235.62286377 C11.91156368 235.62505783 13.40205931 235.62906696 14.89254761 235.63471985 C18.06864651 235.64319592 21.24440507 235.63962844 24.42048645 235.626297 C29.46920969 235.60567931 34.51760236 235.6160596 39.56632996 235.6305542 C51.20274849 235.65939572 62.83906524 235.64892637 74.47550201 235.63785553 C85.13356976 235.62811836 95.791459 235.62722785 106.44949722 235.6577363 C110.63417029 235.668778 114.81849886 235.67178571 119.00315857 235.65458679 C142.13425053 235.56187014 164.42865951 236.67938566 186.69450378 243.64044189 C187.65549988 243.92274658 188.61649597 244.20505127 189.60661316 244.49591064 C217.76071647 252.97860571 244.26466957 270.25275718 264.75700378 291.14044189 C263.10568339 295.39926899 259.92299957 298.24355143 256.7416687 301.38955688 C256.11870417 302.0135247 255.49573964 302.63749252 254.85389739 303.28036845 C252.76210882 305.37311074 250.66325093 307.45861634 248.56437683 309.54425049 C247.06438797 311.04203842 245.56484634 312.54027435 244.0657196 314.03892517 C240.83451635 317.26719283 237.60017853 320.49227541 234.36339378 323.71494675 C229.24466846 328.81142381 224.13302404 333.91496295 219.02233887 339.01950073 C210.93605361 347.09439793 202.84511171 355.16461072 194.75213796 363.23280394 C180.26537793 377.67527791 165.78413592 392.12327942 151.30814773 406.57655013 C146.22752015 411.64877377 141.14409715 416.71817433 136.05840528 421.78532004 C132.89253569 424.94053424 129.72870593 428.09778801 126.56537628 431.25554848 C125.09932881 432.71813005 123.63241051 434.17983933 122.16455269 435.64060402 C120.15847139 437.63720568 118.15552413 439.63690123 116.15328979 441.63735962 C115.57390315 442.21246918 114.99451651 442.78757874 114.3975727 443.38011587 C110.96577632 446.81671231 107.83949399 450.38795646 104.75700378 454.14044189 C103.49741221 455.30124198 102.20820577 456.43136807 100.88200378 457.51544189 C97.40205636 460.47765703 94.42406327 463.64534842 91.49528503 467.14825439 C89.35797736 469.59775307 87.06751462 471.8535077 84.75700378 474.14044189 C83.74116596 475.17671945 82.72690204 476.21454169 81.71403503 477.25372314 C80.66590346 478.32017412 79.61772593 479.38657994 78.56950378 480.45294189 C78.03647644 481.00272705 77.5034491 481.55251221 76.95426941 482.11895752 C75.59275423 483.49759868 74.17859876 484.82383916 72.75700378 486.14044189 C72.09700378 486.14044189 71.43700378 486.14044189 70.75700378 486.14044189 C70.48605896 486.7366333 70.21511414 487.33282471 69.93595886 487.94708252 C68.77300971 490.11066404 67.62814889 491.5139525 65.89372253 493.23419189 C65.336203 493.78977783 64.77868347 494.34536377 64.20426941 494.91778564 C63.33318542 495.77050049 63.33318542 495.77050049 62.44450378 496.64044189 C61.59082214 497.49315674 61.59082214 497.49315674 60.71989441 498.36309814 C58.24599805 500.81143186 55.7868623 503.11656375 53.06559753 505.29278564 C50.79452047 507.11041585 49.00459613 508.98404823 47.13200378 511.20294189 C42.73281714 516.3884085 42.73281714 516.3884085 40.75700378 518.14044189 C40.09700378 518.14044189 39.43700378 518.14044189 38.75700378 518.14044189 C38.51530457 518.7066626 38.27360535 519.2728833 38.02458191 519.85626221 C36.50604561 522.59266929 34.68548498 524.47113528 32.47575378 526.68731689 C31.21311707 527.9538208 31.21311707 527.9538208 29.92497253 529.24591064 C29.04454285 530.11860596 28.16411316 530.99130127 27.25700378 531.89044189 C25.93635925 533.22268799 25.93635925 533.22268799 24.58903503 534.58184814 C23.74727722 535.42102783 22.90551941 536.26020752 22.03825378 537.12481689 C21.26546082 537.895354 20.49266785 538.66589111 19.69645691 539.45977783 C17.75700378 541.14044189 17.75700378 541.14044189 15.75700378 541.14044189 C13.39995538 535.36486302 11.08739176 529.57311723 8.80436707 523.7678833 C7.91978739 521.54880486 7.00159209 519.3497872 6.06559753 517.15216064 C-1.52248074 498.59141107 -3.65963699 476.91947282 -3.74299622 457.01544189 C-3.75242249 455.4042749 -3.75242249 455.4042749 -3.76203918 453.76055908 C-3.72737429 451.51844686 -3.62125892 449.27669014 -3.4568634 447.04034424 C-3.29277606 444.04818534 -3.35604114 441.41001981 -3.56819153 438.4475708 C-3.8422192 426.16641373 0.77650901 418.82566007 8.92326355 410.20809937 C14.76144269 404.22364628 20.80542124 398.46182687 26.90513611 392.74597168 C30.4080725 389.44525492 33.8602488 386.09238886 37.31559753 382.74200439 C41.20933946 378.96999236 45.10678828 375.20321219 49.0453949 371.47799683 C57.01436071 363.93488904 57.01436071 363.93488904 64.32749939 355.75991821 C66.42150871 353.38762854 68.80913457 351.43519328 71.27653503 349.46466064 C73.02126743 348.01526584 73.02126743 348.01526584 74.75700378 345.14044189 C73.75412827 345.13013443 72.75125275 345.11982697 71.71798706 345.10920715 C62.22944522 345.01110726 52.74096363 344.90834165 43.25252056 344.80110264 C38.37537413 344.74612821 33.49822149 344.6927515 28.62101746 344.64312744 C23.90715601 344.59510487 19.19336007 344.54275309 14.47957802 344.48750114 C12.68843548 344.4672478 10.89727511 344.44850873 9.10610008 344.43136787 C-5.38578391 344.29114506 -19.05293337 343.35017743 -33.24299622 340.14044189 C-33.96519348 339.98092041 -34.68739075 339.82139893 -35.43147278 339.65704346 C-61.46298983 333.78840634 -84.53335775 321.77846155 -105.24299622 305.14044189 C-105.86480774 304.64109131 -106.48661926 304.14174072 -107.12727356 303.6272583 C-125.30576332 288.87195942 -138.60005744 271.35617333 -150.24299622 251.14044189 C-150.72381653 250.36700439 -151.20463684 249.59356689 -151.70002747 248.79669189 C-156.13752506 241.47129903 -158.60807278 233.24057413 -161.24299622 225.14044189 C-161.51321594 224.3144751 -161.78343567 223.4885083 -162.06184387 222.63751221 C-162.88907153 220.08098249 -163.69490639 217.51870582 -164.49299622 214.95294189 C-164.73912659 214.18296875 -164.98525696 213.41299561 -165.23884583 212.61968994 C-168.77031792 200.96229689 -169.58920115 189.13726299 -169.49299622 177.01544189 C-169.48550354 175.75425537 -169.47801086 174.49306885 -169.47029114 173.19366455 C-168.99601876 131.57957536 -154.76897483 92.70833931 -127.24299622 61.14044189 C-126.61022766 60.40930176 -126.61022766 60.40930176 -125.9646759 59.66339111 C-105.24377235 35.89787277 -78.38770825 17.69121735 -48.07698059 8.69683838 C-46.50840702 8.22096256 -44.9572769 7.68822338 -43.41096497 7.14434814 C-38.79187862 5.68059328 -34.09250222 4.64364372 -29.36799622 3.57794189 C-28.4128009 3.35686768 -27.45760559 3.13579346 -26.47346497 2.90802002 C-25.5337384 2.69468018 -24.59401184 2.48134033 -23.62580872 2.26153564 C-22.78421204 2.0700293 -21.94261536 1.87852295 -21.07551575 1.68121338 C-14.00778148 0.33187435 -7.17513313 -0.00669997 0 0 Z " fill="#1D3DB0" transform="translate(457.2429962158203,284.85955810546875)"/>
<path d="M0 0 C3.136641 0.80466117 4.41943354 2.07707695 6.640625 4.42578125 C7.42695312 5.2559375 8.21328125 6.08609375 9.0234375 6.94140625 C12.04617021 10.35320357 14.88740205 13.89050256 17.734375 17.44921875 C21.55642979 22.10018921 25.75082106 26.42118105 29.89892578 30.77954102 C35.73430795 36.91867222 41.27688182 43.28636363 46.76489258 49.73583984 C51.79766432 55.64941071 56.92320163 61.45283402 62.16796875 67.1796875 C66.22888613 71.6259995 70.16913372 76.17174839 74.06640625 80.76171875 C74.5547998 81.33559326 75.04319336 81.90946777 75.54638672 82.50073242 C76.56915312 83.70265411 77.59030874 84.9059483 78.60986328 86.1105957 C81.26799092 89.22729409 83.97579931 92.25828192 86.83203125 95.1953125 C87.38608643 95.76999268 87.9401416 96.34467285 88.51098633 96.93676758 C89.57227792 98.0285862 90.64587608 99.10861785 91.7331543 100.17456055 C94.17447197 102.6945643 95.33649594 104.31483994 95.96875 107.80078125 C95.390625 110.61328125 95.390625 110.61328125 93.85742188 112.25708008 C90.42172916 114.145963 87.16990044 114.09218004 83.34375 114.125 C82.57254822 114.1429512 81.80134644 114.1609024 81.0067749 114.17939758 C78.55144668 114.23343894 76.09631214 114.26737545 73.640625 114.30078125 C71.97262934 114.33395989 70.30465921 114.36845007 68.63671875 114.40429688 C64.5548274 114.48916147 60.47299286 114.55600151 56.390625 114.61328125 C56.38926847 115.32126431 56.38791194 116.02924737 56.38651431 116.75868446 C56.30575168 158.7793668 56.21475129 200.80001622 56.11057339 242.82064735 C56.09805548 247.87335131 56.08562256 252.92605547 56.07324219 257.97875977 C56.07077619 258.98460366 56.0683102 259.99044756 56.06576948 261.02677157 C56.02611525 277.28370743 55.99333555 293.54065019 55.96312518 309.79760603 C55.93194054 326.49591162 55.89330151 343.19418814 55.84783494 359.892461 C55.82004314 370.18468107 55.79797007 380.47688003 55.78336249 390.76912739 C55.77276803 397.84015711 55.75489102 404.9111458 55.73145796 411.98214451 C55.71817613 416.05327044 55.70794106 420.12433924 55.70641136 424.19548798 C55.68655251 463.0797877 55.68655251 463.0797877 51.390625 479.61328125 C51.08624218 481.89269353 50.90199416 484.14530794 50.734375 486.4375 C50.32415426 489.0340108 49.38681482 491.18391128 48.390625 493.61328125 C47.92348618 495.37652776 47.48791882 497.14833196 47.078125 498.92578125 C44.21920355 510.59133009 40.74949872 521.83760004 35.390625 532.61328125 C34.7629185 533.89448112 34.13532232 535.17573504 33.5078125 536.45703125 C17.18307817 569.601546 -4.93017504 600.2268828 -34.90625 622.35449219 C-36.56972431 623.58397521 -38.21465052 624.83544337 -39.859375 626.08984375 C-49.15464174 633.05922328 -59.16802294 638.70859899 -69.31860352 644.33081055 C-71.31868937 645.45054315 -73.28812006 646.60941468 -75.2578125 647.78125 C-78.8622402 649.75150244 -82.43608854 651.18289766 -86.296875 652.55078125 C-91.08345882 654.28422367 -95.77286138 656.09354698 -100.421875 658.17578125 C-107.70834301 661.22479794 -115.19628455 663.1795337 -122.87451172 664.96630859 C-124.69361385 665.39664431 -126.5079963 665.84745759 -128.31689453 666.31884766 C-144.71645184 670.54258557 -160.76693349 671.0960909 -177.609375 671.11328125 C-178.65409973 671.11768219 -179.69882446 671.12208313 -180.77520752 671.12661743 C-194.33230662 671.15042982 -207.30398098 670.23809909 -220.609375 667.61328125 C-222.2802417 667.29157959 -222.2802417 667.29157959 -223.98486328 666.96337891 C-226.72496322 666.40789791 -229.44796987 665.80533369 -232.171875 665.17578125 C-233.49155273 664.88864258 -233.49155273 664.88864258 -234.83789062 664.59570312 C-240.2490805 663.36353093 -245.25115064 661.67764257 -250.37036133 659.53881836 C-253.99227231 658.04163544 -257.7211581 656.9119637 -261.45703125 655.73828125 C-290.07689925 645.52449936 -314.81716695 627.22729295 -337.609375 607.61328125 C-338.77146484 606.63875 -338.77146484 606.63875 -339.95703125 605.64453125 C-343.9477435 602.26126846 -347.39761214 598.68978459 -350.7734375 594.6953125 C-352.72377635 592.48354525 -354.79455562 590.46726143 -356.921875 588.42578125 C-362.44873963 582.95521745 -367.02678277 576.86644467 -371.609375 570.61328125 C-372.04942871 570.02337402 -372.48948242 569.4334668 -372.94287109 568.82568359 C-374.24267059 567.07787417 -375.52259702 565.31725665 -376.796875 563.55078125 C-377.93189453 561.98650391 -377.93189453 561.98650391 -379.08984375 560.390625 C-380.609375 557.61328125 -380.609375 557.61328125 -380.51055908 555.76719666 C-379.19575986 552.62470185 -377.12319338 550.76912906 -374.70996094 548.37329102 C-374.20090714 547.86379913 -373.69185333 547.35430725 -373.16737366 546.82937622 C-371.48317937 545.14727109 -369.78860319 543.4760468 -368.09375 541.8046875 C-366.91822975 540.63476679 -365.74337331 539.46417875 -364.56915283 538.29295349 C-361.4737999 535.20905456 -358.36955422 532.13425996 -355.2633667 529.0612793 C-352.11684373 525.9453188 -348.97866796 522.82097788 -345.83984375 519.69726562 C-340.30521912 514.19134936 -334.76328743 508.69288278 -329.21600342 503.19972229 C-325.5677236 499.57969706 -321.93257272 495.94699461 -318.31958008 492.29174805 C-315.0593152 488.9960392 -311.79308232 485.70631745 -308.5246582 482.41870117 C-307.11565956 480.99955996 -305.70844872 479.57864161 -304.30297852 478.15600586 C-302.2704325 476.09933326 -300.23161143 474.04907131 -298.19140625 472 C-297.56120071 471.35947189 -296.93099518 470.71894379 -296.2816925 470.05900574 C-294.76174614 468.53866643 -293.19010523 467.07031951 -291.609375 465.61328125 C-290.949375 465.61328125 -290.289375 465.61328125 -289.609375 465.61328125 C-289.609375 464.95328125 -289.609375 464.29328125 -289.609375 463.61328125 C-288.949375 463.61328125 -288.289375 463.61328125 -287.609375 463.61328125 C-287.40183594 464.29390625 -287.19429687 464.97453125 -286.98046875 465.67578125 C-280.93662157 484.69240501 -272.65365719 501.20888926 -258.609375 515.61328125 C-257.805 516.45890625 -257.000625 517.30453125 -256.171875 518.17578125 C-255.32625 518.98015625 -254.480625 519.78453125 -253.609375 520.61328125 C-252.92746094 521.2784375 -252.24554687 521.94359375 -251.54296875 522.62890625 C-228.53587603 544.34346567 -199.73254469 551.41519967 -168.96484375 550.87109375 C-161.33792137 550.60050951 -154.02930821 549.33791437 -146.609375 547.61328125 C-145.26939453 547.30583984 -145.26939453 547.30583984 -143.90234375 546.9921875 C-124.65690805 541.85368808 -108.69471826 531.34803764 -94.609375 517.61328125 C-93.90425781 516.98164062 -93.19914062 516.35 -92.47265625 515.69921875 C-81.77023325 505.84343773 -74.43901496 492.48590509 -68.43212891 479.39746094 C-67.70704841 477.82509052 -66.94787671 476.26853677 -66.18359375 474.71484375 C-58.8766601 458.924628 -56.44841835 440.76921707 -56.48912048 423.5471344 C-56.48868406 422.21290709 -56.48780784 420.87867986 -56.48653132 419.54445308 C-56.48430037 415.88895074 -56.48828846 412.23347781 -56.49330938 408.57797921 C-56.49763381 404.63191679 -56.49616604 400.68585599 -56.4954071 396.73979187 C-56.49488313 389.90655182 -56.4980167 383.07332134 -56.50364494 376.24008369 C-56.51177711 366.3604082 -56.51437693 356.48073731 -56.51563293 346.60105883 C-56.51782075 330.57135757 -56.52447353 314.54166139 -56.53393555 298.51196289 C-56.54311664 282.94197617 -56.55019407 267.37199083 -56.55444336 251.80200195 C-56.55470608 250.84202844 -56.55496881 249.88205493 -56.55523949 248.89299131 C-56.55654454 244.07701482 -56.55780825 239.26103831 -56.55905139 234.4450618 C-56.5694156 194.50113139 -56.58702658 154.55720665 -56.609375 114.61328125 C-57.64868164 114.60393555 -58.68798828 114.59458984 -59.75878906 114.58496094 C-63.62071338 114.54504002 -67.4818428 114.47927647 -71.34326172 114.40576172 C-73.01340511 114.37756407 -74.68368165 114.35634346 -76.35400391 114.34228516 C-78.75752872 114.32083788 -81.15945483 114.2741828 -83.5625 114.22265625 C-84.30743713 114.22142761 -85.05237427 114.22019897 -85.81988525 114.21893311 C-89.32130619 114.12035967 -91.27946891 113.86164403 -94.11230469 111.72900391 C-95.609375 109.61328125 -95.609375 109.61328125 -95.609375 107.15234375 C-94.40388238 104.09152264 -92.89067828 102.35671764 -90.609375 99.98828125 C-87.35711101 96.52090688 -84.26345743 93.0157885 -81.296875 89.30078125 C-77.40616792 84.48662537 -73.27937034 79.96403791 -69.05151367 75.44995117 C-65.93412774 72.10263882 -62.97378333 68.68341337 -60.109375 65.11328125 C-55.77408567 59.71387545 -51.11486039 54.67277759 -46.39453125 49.61328125 C-43.63591161 46.65452103 -40.96326174 43.6293304 -38.31640625 40.5703125 C-36.27304069 38.22768975 -34.19256641 35.92054703 -32.109375 33.61328125 C-27.23779995 28.20951733 -22.42965114 22.75939856 -17.71875 17.21484375 C-17.19708252 16.6022168 -16.67541504 15.98958984 -16.13793945 15.35839844 C-15.10549952 14.14488149 -14.07525359 12.9294932 -13.04760742 11.71191406 C-11.58668291 9.99511594 -10.10454076 8.30031108 -8.609375 6.61328125 C-8.10422363 6.03094727 -7.59907227 5.44861328 -7.07861328 4.84863281 C-4.84905611 2.41885015 -3.26013271 0.76622879 0 0 Z " fill="#1870FD" transform="translate(866.609375,292.38671875)"/>
<path d="M0 0 C0.66 0 1.32 0 2 0 C0.71836542 2.81576732 -0.60871323 4.85301146 -2.80981445 7.02099609 C-3.37412674 7.58192963 -3.93843903 8.14286316 -4.51985168 8.72079468 C-5.12818344 9.31566681 -5.7365152 9.91053894 -6.36328125 10.5234375 C-7.30677681 11.45913071 -7.30677681 11.45913071 -8.26933289 12.41372681 C-10.27902439 14.40563426 -12.29526243 16.3907372 -14.3125 18.375 C-16.31818127 20.35294184 -18.3223427 22.33236316 -20.3235321 24.31484985 C-21.56731674 25.54651233 -22.81376431 26.77549357 -24.06330872 28.00131226 C-27.61218628 31.50979477 -30.83977601 35.13863307 -34 39 C-35.25959158 40.16080008 -36.54879801 41.29092617 -37.875 42.375 C-41.35494742 45.33721513 -44.33294052 48.50490652 -47.26171875 52.0078125 C-49.39902642 54.45731118 -51.68948917 56.71306581 -54 59 C-55.01583783 60.03627755 -56.03010174 61.0740998 -57.04296875 62.11328125 C-58.09110033 63.17973223 -59.13927786 64.24613804 -60.1875 65.3125 C-60.72052734 65.86228516 -61.25355469 66.41207031 -61.80273438 66.97851562 C-63.16424956 68.35715678 -64.57840502 69.68339727 -66 71 C-66.66 71 -67.32 71 -68 71 C-68.24492188 71.57234375 -68.48984375 72.1446875 -68.7421875 72.734375 C-70.21110099 75.38024402 -71.95348244 77.14853139 -74.125 79.25 C-74.84945312 79.95640625 -75.57390625 80.6628125 -76.3203125 81.390625 C-77.15175781 82.18726563 -77.15175781 82.18726563 -78 83 C-78.33 82.01 -78.66 81.02 -79 80 C-78.34 80 -77.68 80 -77 80 C-77 79.01 -77 78.02 -77 77 C-74.625 74.3125 -74.625 74.3125 -72 72 C-71.34 72 -70.68 72 -70 72 C-70 71.34 -70 70.68 -70 70 C-69.34 70 -68.68 70 -68 70 C-68 69.34 -68 68.68 -68 68 C-66.390625 66.44921875 -66.390625 66.44921875 -64.25 64.6875 C-61.07898453 62.00048163 -58.57756697 59.26491816 -56 56 C-54.01739574 54.31267723 -52.0167658 52.64633943 -50 51 C-47.24644814 48.44313041 -45.11986143 46.19177829 -43.125 43 C-40.86188138 39.80500901 -38.76075119 38.21494346 -35.48828125 36.17578125 C-33.6864061 34.97317145 -33.6864061 34.97317145 -33 32 C-32.01 32 -31.02 32 -30 32 C-30 31.34 -30 30.68 -30 30 C-29.360625 29.525625 -28.72125 29.05125 -28.0625 28.5625 C-25.71627037 27.0908635 -25.71627037 27.0908635 -25 24 C-24.01 23.67 -23.02 23.34 -22 23 C-20.70045874 21.43266316 -20.70045874 21.43266316 -19.5625 19.5625 C-17.57411193 16.6215907 -16.18939908 15.54325762 -13 14 C-12.319375 12.96875 -11.63875 11.9375 -10.9375 10.875 C-9.9784375 9.451875 -9.9784375 9.451875 -9 8 C-8.01 8 -7.02 8 -6 8 C-5.34 6.68 -4.68 5.36 -4 4 C-3.34 4 -2.68 4 -2 4 C-1.34 2.68 -0.68 1.36 0 0 Z " fill="#2559E6" transform="translate(596,700)"/>
<path d="M0 0 C0 3.76596445 -0.79875182 4.94665575 -3 8 C-4.63480567 9.48695503 -6.33024334 10.87799979 -8.04208374 12.27531433 C-9.91724893 13.92710639 -11.46388624 15.61805554 -13.06494141 17.5324707 C-17.21390046 22.3382717 -21.69874944 26.76741189 -26.22855759 31.2120266 C-27.74522672 32.70164643 -29.25713543 34.195949 -30.76773071 35.69172668 C-35.05652827 39.93814804 -39.34829131 44.18144682 -43.65576172 48.40893555 C-46.30491819 51.00957223 -48.9442076 53.61987408 -51.5773201 56.23674965 C-52.57761846 57.2271696 -53.58155714 58.21392727 -54.58921432 59.19685936 C-55.99359448 60.56748222 -57.38456921 61.95180011 -58.77490234 63.33666992 C-59.56875336 64.11862228 -60.36260437 64.90057465 -61.18051147 65.70622253 C-63.16277096 68.20520072 -63.66480219 69.86223026 -64 73 C-64.33 73 -64.66 73 -65 73 C-65.46886419 68.60282232 -65.43854855 66.60504647 -62.80050659 62.9654541 C-61.77800901 61.92581409 -60.73602935 60.90511085 -59.67919922 59.90039062 C-59.11337631 59.33515182 -58.54755341 58.76991302 -57.96458435 58.18754578 C-56.09391258 56.32683035 -54.1997993 54.49203946 -52.3046875 52.65625 C-50.99466986 51.36184358 -49.68627167 50.06579632 -48.37942505 48.76818848 C-44.93451617 45.35565131 -41.46958137 41.96419732 -37.99957275 38.57720947 C-33.8033232 34.47450727 -29.62946921 30.34905335 -25.45382881 26.2253952 C-22.20076295 23.01325507 -18.94410956 19.80509494 -15.67526245 16.60900879 C-15.07082809 16.01614578 -14.46639374 15.42328278 -13.84364319 14.81245422 C-12.72821978 13.71850957 -11.61078224 12.62661231 -10.49073792 11.53739929 C-6.76455898 7.87576032 -3.34530973 4.01143161 0 0 Z " fill="#1E47D1" transform="translate(522,640)"/>
<path d="M0 0 C0.99 0.495 0.99 0.495 2 1 C2.35840222 3.32961443 2.68848712 5.66365343 3 8 C3.65778963 9.67019012 4.32512283 11.33664104 5 13 C5.45809769 14.72382427 5.89498397 16.45339966 6.3125 18.1875 C7.59793281 23.066898 9.49809582 27.19849399 11.87109375 31.6328125 C12.97964369 33.95731515 13.59319595 36.05095484 14.125 38.5625 C14.41375 39.696875 14.7025 40.83125 15 42 C15.99 42.33 16.98 42.66 18 43 C19.05725253 44.97033426 20.04435012 46.97843296 21 49 C22.30587094 51.07841321 23.64739081 53.12751368 25.01171875 55.16796875 C26 57 26 57 26 60 C27.485 60.495 27.485 60.495 29 61 C29 61.66 29 62.32 29 63 C30.29078411 64.4587688 30.29078411 64.4587688 32 66 C35.88571429 69.65714286 35.88571429 69.65714286 37 73 C38.63044124 74.65637688 38.63044124 74.65637688 40.5625 76.1875 C41.20316406 76.71730469 41.84382813 77.24710938 42.50390625 77.79296875 C42.99761719 78.19128906 43.49132812 78.58960938 44 79 C43.34 79.66 42.68 80.32 42 81 C30.14847613 70.37098289 21.87479873 56.67307853 14 43 C13.51917969 42.2265625 13.03835938 41.453125 12.54296875 40.65625 C8.10486222 33.32985191 5.67557184 25.08898483 3 17 C2.65453125 15.98550781 2.3090625 14.97101563 1.953125 13.92578125 C0.38440958 9.09384178 -0.33134539 5.08062936 0 0 Z " fill="#283A8C" transform="translate(293,493)"/>
<path d="M0 0 C0.33 0 0.66 0 1 0 C1.03758423 1.20160767 1.03758423 1.20160767 1.07592773 2.42749023 C1.19279735 6.09762026 1.31510745 9.76755017 1.4375 13.4375 C1.47681641 14.69755859 1.51613281 15.95761719 1.55664062 17.25585938 C1.78193544 23.89339114 2.19621778 30.40898582 3 37 C3.07228243 39.34151272 3.04985446 41.65684051 3 44 C-1.6819237 39.3180763 -1.13485279 31.02307605 -1.23046875 24.78515625 C-1.22652655 22.21090067 -1.21201564 19.63664186 -1.1875 17.0625 C-1.18685547 15.74958984 -1.18621094 14.43667969 -1.18554688 13.08398438 C-1.14084088 3.42252265 -1.14084088 3.42252265 0 0 Z " fill="#293A8B" transform="translate(289,444)"/>
<path d="M0 0 C0.66 0 1.32 0 2 0 C0.70280076 2.85779017 -0.6636826 4.91008536 -2.88916016 7.11621094 C-3.4696109 7.69651062 -4.05006165 8.2768103 -4.64810181 8.87469482 C-5.27211884 9.48838928 -5.89613586 10.10208374 -6.5390625 10.734375 C-7.17991791 11.37240051 -7.82077332 12.01042603 -8.48104858 12.66778564 C-10.52437821 14.69994069 -12.57455982 16.72502218 -14.625 18.75 C-16.0134786 20.1284453 -17.4015049 21.50734636 -18.7890625 22.88671875 C-22.18748697 26.26311894 -25.59207254 29.63319288 -29 33 C-29.33 32.01 -29.66 31.02 -30 30 C-29.360625 29.566875 -28.72125 29.13375 -28.0625 28.6875 C-25.73253997 27.08760823 -25.73253997 27.08760823 -25 24 C-24.01 23.67 -23.02 23.34 -22 23 C-20.70045874 21.43266316 -20.70045874 21.43266316 -19.5625 19.5625 C-17.57411193 16.6215907 -16.18939908 15.54325762 -13 14 C-12.319375 12.96875 -11.63875 11.9375 -10.9375 10.875 C-10.298125 9.92625 -9.65875 8.9775 -9 8 C-8.01 8 -7.02 8 -6 8 C-5.34 6.68 -4.68 5.36 -4 4 C-3.34 4 -2.68 4 -2 4 C-1.34 2.68 -0.68 1.36 0 0 Z " fill="#174ADC" transform="translate(596,700)"/>
<path d="M0 0 C6.13614247 1.71895332 11.57739102 4.7347636 17.1875 7.6875 C18.21238525 8.22407227 19.23727051 8.76064453 20.29321289 9.31347656 C27.08363666 12.90144154 33.68542578 16.61530788 40 21 C38.2734375 21.671875 38.2734375 21.671875 36 22 C33.8515625 20.890625 33.8515625 20.890625 31.625 19.25 C28.1689295 16.79361931 24.84426821 14.77427763 21 13 C21 12.34 21 11.68 21 11 C20.236875 10.7525 19.47375 10.505 18.6875 10.25 C13.76206342 8.58036048 8.88283322 6.78979296 4 5 C4 4.01 4 3.02 4 2 C2.68 2 1.36 2 0 2 C0 1.34 0 0.68 0 0 Z " fill="#254CCD" transform="translate(658,534)"/>
<path d="M0 0 C1.32 0.33 2.64 0.66 4 1 C2.04761147 3.00612399 0.08862178 5.00492433 -1.875 7 C-2.43058594 7.57234375 -2.98617187 8.1446875 -3.55859375 8.734375 C-5.00134404 10.19450782 -6.4974374 11.60149298 -8 13 C-8.66 13 -9.32 13 -10 13 C-10.24492188 13.57234375 -10.48984375 14.1446875 -10.7421875 14.734375 C-12.21110099 17.38024402 -13.95348244 19.14853139 -16.125 21.25 C-16.84945312 21.95640625 -17.57390625 22.6628125 -18.3203125 23.390625 C-18.87460937 23.92171875 -19.42890625 24.4528125 -20 25 C-20.33 24.01 -20.66 23.02 -21 22 C-20.34 22 -19.68 22 -19 22 C-19 21.01 -19 20.02 -19 19 C-16.625 16.3125 -16.625 16.3125 -14 14 C-13.34 14 -12.68 14 -12 14 C-12 13.34 -12 12.68 -12 12 C-11.34 12 -10.68 12 -10 12 C-10 11.34 -10 10.68 -10 10 C-8.3203125 8.37890625 -8.3203125 8.37890625 -6.125 6.5625 C-3.53806278 4.41599116 -1.88815626 2.83223438 0 0 Z " fill="#2A61EC" transform="translate(538,758)"/>
<path d="M0 0 C2.62002725 2.37050084 4.35819909 4.87276017 6 8 C6 8.99 6 9.98 6 11 C6.99 11.33 7.98 11.66 9 12 C9 12.66 9 13.32 9 14 C10.29078411 15.4587688 10.29078411 15.4587688 12 17 C15.88571429 20.65714286 15.88571429 20.65714286 17 24 C18.63044124 25.65637688 18.63044124 25.65637688 20.5625 27.1875 C21.20316406 27.71730469 21.84382813 28.24710938 22.50390625 28.79296875 C23.24447266 29.39044922 23.24447266 29.39044922 24 30 C23.34 30.66 22.68 31.32 22 32 C13.45245169 24.33414722 5.26749191 14.27248422 0 4 C0 2.68 0 1.36 0 0 Z " fill="#1F3086" transform="translate(313,542)"/>
<path d="M0 0 C0.33 0.99 0.66 1.98 1 3 C-0.0828125 3.7734375 -0.0828125 3.7734375 -1.1875 4.5625 C-3.49514073 6.5624553 -4.78497661 7.98017626 -6.4375 10.4375 C-8.83320834 13.95971696 -11.65187713 16.34940273 -15 19 C-15.9075 19.9075 -16.815 20.815 -17.75 21.75 C-20 24 -20 24 -22 25 C-20.60569125 20.71366807 -18.63110416 18.27734902 -15.4296875 15.13671875 C-14.53378906 14.25048828 -13.63789062 13.36425781 -12.71484375 12.45117188 C-11.77769531 11.53916016 -10.84054687 10.62714844 -9.875 9.6875 C-8.91988395 8.74744428 -7.96544933 7.80669569 -7.01171875 6.86523438 C-4.68109117 4.56991933 -2.34374804 2.28190354 0 0 Z " fill="#2C75FC" transform="translate(564,769)"/>
<path d="M0 0 C0.99 0.66 1.98 1.32 3 2 C4.11668642 11.49183456 1.14215931 22.11998456 -2 31 C-3.125 29.375 -3.125 29.375 -4 27 C-3.25 24.25 -3.25 24.25 -2 21 C0.11153844 14.08823084 0.46886603 8.13449214 -1 1 C-0.67 0.67 -0.34 0.34 0 0 Z " fill="#1D46C9" transform="translate(692,286)"/>
<path d="M0 0 C0.33 0 0.66 0 1 0 C1.33 6.27 1.66 12.54 2 19 C2.33 19 2.66 19 3 19 C3.33 20.98 3.66 22.96 4 25 C3.34 25 2.68 25 2 25 C2.33 30.61 2.66 36.22 3 42 C2.67 42 2.34 42 2 42 C0.2134604 32.4902517 -0.25206396 23.34924781 -0.125 13.6875 C-0.11493218 12.34961621 -0.10581316 11.01172493 -0.09765625 9.67382812 C-0.07437244 6.44902038 -0.0416741 3.22461346 0 0 Z " fill="#5583F3" transform="translate(454,728)"/>
<path d="M0 0 C0.66 0.33 1.32 0.66 2 1 C2.125 6.75 2.125 6.75 1 9 C1.11291681 10.67116886 1.28748977 12.33855636 1.5 14 C2.11111111 18.77777778 2.11111111 18.77777778 1 21 C0.76827173 23.54615009 0.58105471 26.07396225 0.4375 28.625 C0.39431641 29.33140625 0.35113281 30.0378125 0.30664062 30.765625 C0.20055249 32.51018537 0.09977111 34.25506697 0 36 C-0.33 36 -0.66 36 -1 36 C-1.02480062 31.67668037 -1.04290758 27.35339894 -1.05493164 23.0300293 C-1.05994669 21.56062091 -1.06676033 20.09121748 -1.07543945 18.62182617 C-1.08762928 16.50438205 -1.09325669 14.38700417 -1.09765625 12.26953125 C-1.10289307 10.99698486 -1.10812988 9.72443848 -1.11352539 8.41333008 C-1.01539606 5.4629081 -0.69063835 2.86053325 0 0 Z " fill="#114DED" transform="translate(456,713)"/>
<path d="M0 0 C0.99 0.33 1.98 0.66 3 1 C-3.6 7.6 -10.2 14.2 -17 21 C-17.33 20.01 -17.66 19.02 -18 18 C-16.37660195 16.29115995 -14.70680947 14.62553283 -13 13 C-12.34 13 -11.68 13 -11 13 C-10.773125 12.443125 -10.54625 11.88625 -10.3125 11.3125 C-8.62449964 8.33840412 -6.53323483 6.27991135 -4 4 C-3.34 4 -2.68 4 -2 4 C-1.34 2.68 -0.68 1.36 0 0 Z " fill="#204ACE" transform="translate(693,603)"/>
<path d="M0 0 C0.99 0.33 1.98 0.66 3 1 C-2.28 6.28 -7.56 11.56 -13 17 C-13.33 16.01 -13.66 15.02 -14 14 C-9.38 9.38 -4.76 4.76 0 0 Z " fill="#1F4ACE" transform="translate(665,631)"/>
<path d="M0 0 C0.99 0.33 1.98 0.66 3 1 C2.25556641 1.72703125 2.25556641 1.72703125 1.49609375 2.46875 C-3.23054696 7.132608 -7.6966545 11.94356903 -12 17 C-12.66 16.34 -13.32 15.68 -14 15 C-9.38 10.05 -4.76 5.1 0 0 Z " fill="#2F80FC" transform="translate(831,330)"/>
<path d="M0 0 C0 4.73510486 -2.92138666 7.5674463 -6 11 C-8.25433893 12.88086561 -10.51916176 14.41226353 -13 16 C-13.66 15.67 -14.32 15.34 -15 15 C-10.05 10.05 -5.1 5.1 0 0 Z " fill="#3079FC" transform="translate(522,811)"/>
<path d="M0 0 C0.33 0.99 0.66 1.98 1 3 C-0.74294474 5.3681635 -2.48379005 7.50699905 -4.4375 9.6875 C-4.96666016 10.29400391 -5.49582031 10.90050781 -6.04101562 11.52539062 C-7.35161048 13.02490005 -8.67466418 14.51350334 -10 16 C-10.99 15.67 -11.98 15.34 -13 15 C-12.39671875 14.33613281 -11.7934375 13.67226563 -11.171875 12.98828125 C-10.37265625 12.10527344 -9.5734375 11.22226562 -8.75 10.3125 C-7.96109375 9.44238281 -7.1721875 8.57226562 -6.359375 7.67578125 C-4.15500436 5.17579137 -2.05866059 2.62054272 0 0 Z " fill="#2B7CFD" transform="translate(791,375)"/>
<path d="M0 0 C0.928125 0.825 1.85625 1.65 2.8125 2.5 C7.63858793 6.65083283 12.81940662 10.30894432 18 14 C17.01 14.66 16.02 15.32 15 16 C14.67 15.01 14.34 14.02 14 13 C13.154375 12.79375 12.30875 12.5875 11.4375 12.375 C6.31515219 10.32606088 3.23213688 6.3970187 0 2 C0 1.34 0 0.68 0 0 Z " fill="#23389F" transform="translate(410,498)"/>
<path d="M0 0 C0.99 0.33 1.98 0.66 3 1 C2.36191406 1.59167969 1.72382813 2.18335938 1.06640625 2.79296875 C0.24011719 3.58316406 -0.58617187 4.37335937 -1.4375 5.1875 C-2.26121094 5.96480469 -3.08492188 6.74210938 -3.93359375 7.54296875 C-6.12294002 10.1461801 -6.67393495 11.66227956 -7 15 C-7.33 15 -7.66 15 -8 15 C-8.46431694 12.21409835 -8.68373353 10.68968705 -8 8 C-5.61969454 4.99851833 -2.90085684 2.49292384 0 0 Z " fill="#2955E1" transform="translate(465,698)"/>
<path d="M0 0 C-0.4743098 4.2687882 -2.80716564 6.31511656 -6 9 C-8.8125 9.8125 -8.8125 9.8125 -11 10 C-10.06409496 8.8944811 -9.12620142 7.79064547 -8.1875 6.6875 C-7.66542969 6.07261719 -7.14335937 5.45773437 -6.60546875 4.82421875 C-2.35974304 0 -2.35974304 0 0 0 Z " fill="#3449A4" transform="translate(345,332)"/>
<path d="M0 0 C3.54433654 1.41773462 4.33806119 2.67612238 6 6 C6.680625 6.33 7.36125 6.66 8.0625 7 C8.701875 7.33 9.34125 7.66 10 8 C10.62109375 10.0625 10.62109375 10.0625 11 12 C2.63371151 4.94975689 2.63371151 4.94975689 0 2 C0 1.34 0 0.68 0 0 Z " fill="#0D61FC" transform="translate(509,878)"/>
<path d="M0 0 C0.99 0.33 1.98 0.66 3 1 C2.07038578 2.15224028 1.1309875 3.29659176 0.1875 4.4375 C-0.59560547 5.39462891 -0.59560547 5.39462891 -1.39453125 6.37109375 C-3 8 -3 8 -6 9 C-5.52797514 4.75177626 -3.03344482 2.80010291 0 0 Z " fill="#243DA4" transform="translate(351,325)"/>
<path d="M0 0 C0.99 0.66 1.98 1.32 3 2 C-1.39042858 5.42453429 -4.2902045 7.58221009 -10 8 C-6.88983545 4.71211176 -3.98381075 2.16264012 0 0 Z " fill="#2B44AB" transform="translate(365,315)"/>
<path d="M0 0 C0.66 0 1.32 0 2 0 C0.52278578 3.45201639 -1.43794001 5.64961936 -4.125 8.25 C-4.84945313 8.95640625 -5.57390625 9.6628125 -6.3203125 10.390625 C-6.87460937 10.92171875 -7.42890625 11.4528125 -8 12 C-8.66 11.67 -9.32 11.34 -10 11 C-8.38150935 9.16053461 -6.75581169 7.32848583 -5.125 5.5 C-4.66480469 4.97535156 -4.20460938 4.45070313 -3.73046875 3.91015625 C-2.52827924 2.56858245 -1.26754054 1.28000815 0 0 Z " fill="#DBE6FD" transform="translate(511,788)"/>
<path d="M0 0 C1.32 0.33 2.64 0.66 4 1 C1.03 3.97 -1.94 6.94 -5 10 C-5.33 9.01 -5.66 8.02 -6 7 C-4.78515625 5.17578125 -4.78515625 5.17578125 -3.0625 3.3125 C-2.49660156 2.68988281 -1.93070313 2.06726563 -1.34765625 1.42578125 C-0.90292969 0.95527344 -0.45820312 0.48476563 0 0 Z " fill="#3A6BEC" transform="translate(538,758)"/>
<path d="M0 0 C0 3.69942045 -0.85819127 4.40155392 -3.25 7.125 C-3.85328125 7.82882812 -4.4565625 8.53265625 -5.078125 9.2578125 C-7.10469267 11.09490433 -8.32969429 11.6100881 -11 12 C-7.49102731 7.81576108 -3.91939465 3.80411834 0 0 Z " fill="#214DD9" transform="translate(477,686)"/>
<path d="M0 0 C3.81684226 1.55500981 6.19195732 4.03595495 9 7 C8.67 7.99 8.34 8.98 8 10 C6.33333333 8.33333333 4.66666667 6.66666667 3 5 C2.401875 4.443125 1.80375 3.88625 1.1875 3.3125 C0 2 0 2 0 0 Z " fill="#1E44CE" transform="translate(713,569)"/>
<path d="M0 0 C4.98012761 1.50912958 8.24259942 4.55661849 12 8 C11.34 8.66 10.68 9.32 10 10 C4.125 5.25 4.125 5.25 3 3 C2.01 2.67 1.02 2.34 0 2 C0 1.34 0 0.68 0 0 Z " fill="#1D45CF" transform="translate(698,557)"/>
<path d="M0 0 C0.99 0.33 1.98 0.66 3 1 C-0.12621626 4.39417765 -2.56541027 6.6062718 -7 8 C-6.02133662 6.85373678 -5.04205413 5.70800212 -4.0625 4.5625 C-3.51722656 3.92441406 -2.97195313 3.28632812 -2.41015625 2.62890625 C-1.63204305 1.73008851 -0.84063472 0.84063472 0 0 Z " fill="#2975FC" transform="translate(530,803)"/>
<path d="M0 0 C0.99 0.33 1.98 0.66 3 1 C0.03 4.96 0.03 4.96 -3 9 C-3.66 8.34 -4.32 7.68 -5 7 C-3.35 4.69 -1.7 2.38 0 0 Z " fill="#243B9E" transform="translate(319,361)"/>
<path d="M0 0 C0.33 0.99 0.66 1.98 1 3 C-0.21484375 4.82421875 -0.21484375 4.82421875 -1.9375 6.6875 C-2.50339844 7.31011719 -3.06929687 7.93273437 -3.65234375 8.57421875 C-4.09707031 9.04472656 -4.54179688 9.51523437 -5 10 C-5.66 9.34 -6.32 8.68 -7 8 C-4.69 5.36 -2.38 2.72 0 0 Z " fill="#2A7DFC" transform="translate(806,358)"/>
<path d="M0 0 C0.66 0.33 1.32 0.66 2 1 C2.19622241 5.21878192 1.80230168 8.17010894 0 12 C-0.33 12 -0.66 12 -1 12 C-1.08159574 7.83861737 -0.98248524 4.0527516 0 0 Z " fill="#4570E9" transform="translate(456,713)"/>
<path d="M0 0 C2.0625 2.1875 2.0625 2.1875 4 5 C3.75 7.8125 3.75 7.8125 3 10 C0.70366176 6.55549263 0.45983515 4.06187717 0 0 Z " fill="#437DFB" transform="translate(459,785)"/>
<path d="M0 0 C0.99 0 1.98 0 3 0 C2.60196439 2.88575819 2.20990931 3.82189513 -0.0625 5.75 C-0.701875 6.1625 -1.34125 6.575 -2 7 C-2.33 6.01 -2.66 5.02 -3 4 C-2.34 3.67 -1.68 3.34 -1 3 C-0.67 2.01 -0.34 1.02 0 0 Z " fill="#3161E6" transform="translate(563,732)"/>
<path d="M0 0 C0.66 0.66 1.32 1.32 2 2 C-1.465 4.97 -1.465 4.97 -5 8 C-5 5 -5 5 -2.5 2.3125 C-1.675 1.549375 -0.85 0.78625 0 0 Z " fill="#204CD0" transform="translate(641,655)"/>
<path d="M0 0 C4.455 0.99 4.455 0.99 9 2 C6 4 6 4 2.8125 3.625 C1.884375 3.41875 0.95625 3.2125 0 3 C0 2.01 0 1.02 0 0 Z " fill="#3F61CE" transform="translate(649,531)"/>
<path d="M0 0 C2.97 0.33 5.94 0.66 9 1 C9 1.66 9 2.32 9 3 C6.03 2.67 3.06 2.34 0 2 C0 1.34 0 0.68 0 0 Z " fill="#2C73FB" transform="translate(641,957)"/>
<path d="M0 0 C0 3 0 3 -2.3125 5.6875 C-5 8 -5 8 -8 8 C-5.36 5.36 -2.72 2.72 0 0 Z " fill="#337BFB" transform="translate(506,827)"/>
<path d="M0 0 C0.99 0.495 0.99 0.495 2 1 C2.62599243 4.38035912 3 7.56169885 3 11 C1 10 1 10 0 7 C-0.03954234 4.66700175 -0.04401732 2.33291811 0 0 Z " fill="#192C83" transform="translate(293,493)"/>
<path d="M0 0 C0.66 0.66 1.32 1.32 2 2 C0.35 3.98 -1.3 5.96 -3 8 C-3.66 7.34 -4.32 6.68 -5 6 C-3.35 4.02 -1.7 2.04 0 0 Z " fill="#297DFD" transform="translate(777,391)"/>
<path d="M0 0 C-1.32 0.33 -2.64 0.66 -4 1 C-4 1.66 -4 2.32 -4 3 C-6.31 3.33 -8.62 3.66 -11 4 C-3.77464789 -1.88732394 -3.77464789 -1.88732394 0 0 Z " fill="#435AB8" transform="translate(398,299)"/>
<path d="M0 0 C0.33 0.66 0.66 1.32 1 2 C0 5 0 5 -3 7 C-3.99 6.67 -4.98 6.34 -6 6 C-4.02 4.02 -2.04 2.04 0 0 Z " fill="#2E77FC" transform="translate(539,794)"/>
<path d="M0 0 C0.99 0.33 1.98 0.66 3 1 C-0.465 3.97 -0.465 3.97 -4 7 C-4 6.01 -4 5.02 -4 4 C-3.34 4 -2.68 4 -2 4 C-2 3.01 -2 2.02 -2 1 C-1.34 0.67 -0.68 0.34 0 0 Z " fill="#366CF0" transform="translate(521,776)"/>
<path d="M0 0 C0.99 0.33 1.98 0.66 3 1 C-0.465 3.97 -0.465 3.97 -4 7 C-3.04065919 3.16263678 -2.76390737 2.40339772 0 0 Z " fill="#244CCC" transform="translate(672,624)"/>
<path d="M0 0 C0.66 0.33 1.32 0.66 2 1 C0.68 3.64 -0.64 6.28 -2 9 C-2.33 9 -2.66 9 -3 9 C-3 7.35 -3 5.7 -3 4 C-2.34 4 -1.68 4 -1 4 C-0.67 2.68 -0.34 1.36 0 0 Z " fill="#274ECD" transform="translate(683,328)"/>
<path d="M0 0 C0.99 0.33 1.98 0.66 3 1 C0.69 3.31 -1.62 5.62 -4 8 C-4 4.09161134 -2.49432124 2.88405893 0 0 Z " fill="#2165FB" transform="translate(485,812)"/>
<path d="M0 0 C0.99 0.33 1.98 0.66 3 1 C-0.465 3.97 -0.465 3.97 -4 7 C-3.67 5.68 -3.34 4.36 -3 3 C-2.01 2.67 -1.02 2.34 0 2 C0 1.34 0 0.68 0 0 Z " fill="#234DD3" transform="translate(712,584)"/>
<path d="M0 0 C2.5 2.3125 2.5 2.3125 5 5 C5 5.99 5 6.98 5 8 C2.5 5.6875 2.5 5.6875 0 3 C0 2.01 0 1.02 0 0 Z " fill="#3183FD" transform="translate(900,328)"/>
<path d="M0 0 C-3.20380017 2.13586678 -4.01939967 2.23132175 -7.6875 2.125 C-8.89986328 2.09792969 -8.89986328 2.09792969 -10.13671875 2.0703125 C-11.05904297 2.03550781 -11.05904297 2.03550781 -12 2 C-7.57703297 -0.94864468 -5.15145854 -1.28786464 0 0 Z " fill="#3C56B9" transform="translate(410,296)"/>
</svg>
